HIERARCHY
ROOT Hips
{
	OFFSET 0.00000 0.00000 0.00000
	CHANNELS 6 Xposition Yposition Zposition Zrotation Yrotation Xrotation 
	JOINT LHipJoint
	{
		OFFSET 0 0 0
		CHANNELS 3 Zrotation Yrotation Xrotation
		JOINT LeftUpLeg
		{
			OFFSET 1.57338 -1.94743 0.52196
			CHANNELS 3 Zrotation Yrotation Xrotation
			JOINT LeftLeg
			{
				OFFSET 2.60333 -7.15259 0.00000
				CHANNELS 3 Zrotation Yrotation Xrotation
				JOINT LeftFoot
				{
					OFFSET 2.77855 -7.63400 0.00000
					CHANNELS 3 Zrotation Yrotation Xrotation
					JOINT LeftToeBase
					{
						OFFSET 0.19847 -0.54529 2.28466
						CHANNELS 3 Zrotation Yrotation Xrotation
						End Site
						{
							OFFSET 0.00000 -0.00000 1.17993
						}
					}
				}
			}
		}
	}
	JOINT RHipJoint
	{
		OFFSET 0 0 0
		CHANNELS 3 Zrotation Yrotation Xrotation
		JOINT RightUpLeg
		{
			OFFSET -1.61527 -1.94743 0.52196
			CHANNELS 3 Zrotation Yrotation Xrotation
			JOINT RightLeg
			{
				OFFSET -2.53829 -6.97390 0.00000
				CHANNELS 3 Zrotation Yrotation Xrotation
				JOINT RightFoot
				{
					OFFSET -2.80762 -7.71387 0.00000
					CHANNELS 3 Zrotation Yrotation Xrotation
					JOINT RightToeBase
					{
						OFFSET -0.30536 -0.83898 2.28801
						CHANNELS 3 Zrotation Yrotation Xrotation
						End Site
						{
							OFFSET -0.00000 -0.00000 1.21323
						}
					}
				}
			}
		}
	}
	JOINT LowerBack
	{
		OFFSET 0 0 0
		CHANNELS 3 Zrotation Yrotation Xrotation
		JOINT Spine
		{
			OFFSET -0.04381 1.99497 -0.19778
			CHANNELS 3 Zrotation Yrotation Xrotation
			JOINT Spine1
			{
				OFFSET -0.01959 2.01295 -0.04372
				CHANNELS 3 Zrotation Yrotation Xrotation
				JOINT Neck
				{
					OFFSET 0 0 0
					CHANNELS 3 Zrotation Yrotation Xrotation
					JOINT Neck1
					{
						OFFSET -0.05459 1.76913 0.09708
						CHANNELS 3 Zrotation Yrotation Xrotation
						JOINT Head
						{
							OFFSET 0.09461 1.77368 -0.11172
							CHANNELS 3 Zrotation Yrotation Xrotation
							End Site
							{
								OFFSET 0.03812 1.78157 -0.04834
							}
						}
					}
				}
				JOINT LeftShoulder
				{
					OFFSET 0 0 0
					CHANNELS 3 Zrotation Yrotation Xrotation
					JOINT LeftArm
					{
						OFFSET 3.50922 1.24034 -0.28866
						CHANNELS 3 Zrotation Yrotation Xrotation
						JOINT LeftForeArm
						{
							OFFSET 5.40188 -0.00000 0.00000
							CHANNELS 3 Zrotation Yrotation Xrotation
							JOINT LeftHand
							{
								OFFSET 3.68559 -0.00000 0.00000
								CHANNELS 3 Zrotation Yrotation Xrotation
								JOINT LeftFingerBase
								{
									OFFSET 0 0 0
									CHANNELS 3 Zrotation Yrotation Xrotation
									JOINT LeftHandIndex1
									{
										OFFSET 0.61753 -0.00000 0.00000
										CHANNELS 3 Zrotation Yrotation Xrotation
										End Site
										{
											OFFSET 0.49787 -0.00000 0.00000
										}
									}
								}
								JOINT LThumb
								{
									OFFSET 0 0 0
									CHANNELS 3 Zrotation Yrotation Xrotation
									End Site
									{
										OFFSET 0.50547 -0.00000 0.50547
									}
								}
							}
						}
					}
				}
				JOINT RightShoulder
				{
					OFFSET 0 0 0
					CHANNELS 3 Zrotation Yrotation Xrotation
					JOINT RightArm
					{
						OFFSET -2.95373 1.39649 -0.27346
						CHANNELS 3 Zrotation Yrotation Xrotation
						JOINT RightForeArm
						{
							OFFSET -6.10670 -0.00000 -0.00000
							CHANNELS 3 Zrotation Yrotation Xrotation
							JOINT RightHand
							{
								OFFSET -3.63052 -0.00000 0.00000
								CHANNELS 3 Zrotation Yrotation Xrotation
								JOINT RightFingerBase
								{
									OFFSET 0 0 0
									CHANNELS 3 Zrotation Yrotation Xrotation
									JOINT RightHandIndex1
									{
										OFFSET -0.58385 -0.00000 0.00000
										CHANNELS 3 Zrotation Yrotation Xrotation
										End Site
										{
											OFFSET -0.47071 -0.00000 0.00000
										}
									}
								}
								JOINT RThumb
								{
									OFFSET 0 0 0
									CHANNELS 3 Zrotation Yrotation Xrotation
									End Site
									{
										OFFSET -0.47790 -0.00000 0.47790
									}
								}
							}
						}
					}
				}
			}
		}
	}
}
MOTION
Frames: 9
Frame Time: .0083333
2.8211 19.2227 5.5537 -7.2379 10.3037 1.0762 0.0000 0.0000 0.0000 -12.3652 -16.4877 1.8104 0.4844 4.4631 12.3833 0.0257 9.1938 -13.5478 0.1385 -2.3982 -6.6075 0.0000 0.0000 0.0000 12.9001 20.6035 -1.0793 -0.7275 -5.4498 15.1961 5.4288 -37.2252 -14.4786 -0.6031 -4.9709 13.8257 -3.5014 3.8499 4.8039 -6.5609 4.8318 0.7351 -5.1345 2.4302 -1.6483 -11.1651 -6.6787 -9.6879 11.1054 -8.1764 1.9755 4.6931 -3.7927 3.0899 -0.0000 -0.0000 0.0000 -73.1021 -0.9878 4.9484 16.1304 -25.6971 -3.7023 -0.0000 0.0000 -1.8105 31.0026 26.1335 14.8254 -7.1250 0.0000 -0.0000 1.3269 59.7613 0.4782 -0.0000 -0.0000 0.0000 10.1513 57.0189 49.3269 -80.9308 59.6869 -52.1541 0.0000 0.0000 49.3710 -61.1949 18.3615 -29.8077 7.1250 -0.0000 -0.0000 -19.8054 2.8346 -22.0978
2.8383 19.2232 5.5549 -7.3769 10.1716 0.9820 0.0000 0.0000 0.0000 -12.3136 -16.4664 1.8508 0.4978 4.5235 12.5542 0.0404 9.2029 -13.8076 0.1041 -2.0809 -5.7293 0.0000 0.0000 0.0000 12.9774 20.5170 -1.0433 -0.7182 -5.4154 15.0973 5.4205 -37.2293 -13.7801 -0.5584 -4.7865 13.3005 -3.5893 3.8185 4.8261 -6.5720 4.7761 0.6487 -5.1004 2.4018 -1.7601 -11.3135 -6.6210 -9.6146 10.9885 -8.0851 2.0456 4.6892 -3.7549 3.0888 -0.0000 0.0000 0.0000 -73.0263 -0.8949 4.7668 15.9568 -25.4620 -3.6273 -0.0000 0.0000 -2.2381 30.7556 25.8416 14.5410 -7.1250 0.0000 -0.0000 1.1230 59.3809 0.3945 -0.0000 0.0000 0.0000 9.4463 56.3084 47.9931 -81.5968 59.7315 -52.7292 0.0000 0.0000 48.5746 -62.1105 19.0625 -31.6793 7.1250 -0.0000 -0.0000 -20.0904 4.5729 -23.0434
2.8535 19.2241 5.5601 -7.5988 10.0530 0.8430 0.0000 0.0000 0.0000 -12.1736 -16.4615 1.9531 0.5102 4.5786 12.7105 0.0462 9.2652 -13.9880 0.1118 -2.1559 -5.9366 0.0000 0.0000 0.0000 13.1940 20.5357 -0.9156 -0.7088 -5.3806 14.9975 5.4355 -37.3031 -13.1916 -0.5101 -4.5782 12.7094 -3.5527 3.7309 4.7505 -6.6223 4.6654 0.6359 -5.1618 2.3463 -1.7306 -11.3338 -6.5093 -9.6458 10.9268 -7.9311 2.1380 4.6840 -3.6799 3.1022 0.0000 -0.0000 0.0000 -72.8207 -0.6585 4.5704 15.8332 -25.2940 -3.5744 -0.0000 0.0000 -2.8140 31.1099 25.4538 14.5401 -7.1250 0.0000 -0.0000 1.6520 59.0438 0.5670 0.0000 -0.0000 0.0000 8.6844 55.8309 46.3424 -82.0142 59.7576 -53.0897 0.0000 0.0000 47.5763 -61.1995 16.4198 -27.2109 7.1250 -0.0000 -0.0000 -20.3654 -0.1745 -21.7254
2.8703 19.2227 5.5692 -7.8224 9.9539 0.6395 0.0000 0.0000 0.0000 -12.0425 -16.3487 2.1491 0.5162 4.6049 12.7851 0.0452 9.2819 -13.9934 0.1427 -2.4346 -6.7084 0.0000 0.0000 0.0000 13.4360 20.5166 -0.7096 -0.7040 -5.3628 14.9463 5.4272 -37.2919 -12.9919 -0.5093 -4.5747 12.6994 -3.4559 3.6608 4.7093 -6.6919 4.5779 0.6149 -5.2819 2.3022 -1.7214 -11.3236 -6.3920 -9.7012 10.8760 -7.7800 2.3505 4.6754 -3.6048 3.1551 -0.0000 0.0000 0.0000 -72.6346 -0.5818 4.1252 15.5735 -24.9390 -3.4642 -0.0000 0.0000 -2.8710 31.2788 25.2695 14.5382 -7.1250 0.0000 -0.0000 1.9007 58.8828 0.6451 -0.0000 0.0000 0.0000 7.9014 55.2615 44.6588 -82.1725 59.7672 -53.2265 0.0000 0.0000 46.5594 -60.5128 14.1146 -23.3281 7.1250 -0.0000 -0.0000 -20.6679 -4.3227 -20.4577
2.8886 19.2211 5.5788 -7.9328 9.8590 0.4989 0.0000 0.0000 0.0000 -12.0363 -16.3314 2.3328 0.5205 4.6237 12.8383 0.0433 9.3281 -14.0247 0.1949 -2.8428 -7.8414 0.0000 0.0000 0.0000 13.5190 20.4277 -0.5919 -0.7001 -5.3484 14.9049 5.4438 -37.3578 -12.7179 -0.5156 -4.6024 12.7780 -3.4855 3.6232 4.5990 -6.7657 4.5289 0.5512 -5.3351 2.2777 -1.7251 -11.4175 -6.2649 -9.5644 10.8695 -7.6229 2.5219 4.7028 -3.5323 3.1701 0.0000 0.0000 0.0000 -72.5500 -0.7835 3.2935 15.1146 -24.3055 -3.2730 -0.0000 0.0000 -2.2199 31.0014 25.2439 14.3736 -7.1250 0.0000 -0.0000 1.5836 58.7870 0.5338 0.0000 0.0000 0.0000 7.1081 54.5903 43.0050 -82.0684 59.7609 -53.1365 0.0000 0.0000 45.6435 -60.8541 13.8329 -23.2074 7.1250 -0.0000 -0.0000 -20.9358 -4.5782 -20.6577
2.9081 19.2229 5.5891 -7.8794 9.7752 0.4276 0.0000 0.0000 0.0000 -12.2104 -16.2816 2.4820 0.5225 4.6324 12.8631 0.0469 9.3612 -14.1262 0.2197 -3.0174 -8.3271 0.0000 0.0000 0.0000 13.4165 20.3658 -0.5113 -0.6995 -5.3461 14.8985 5.4515 -37.3877 -12.6085 -0.5262 -4.6488 12.9095 -3.6903 3.5572 4.3896 -6.8615 4.4476 0.5680 -5.3005 2.2384 -1.6036 -11.4059 -6.1751 -9.7338 10.7164 -7.4947 2.8176 4.6569 -3.4689 3.2643 0.0000 0.0000 0.0000 -72.4522 -0.8212 2.8068 14.8664 -23.9597 -3.1715 -0.0000 0.0000 -2.0574 31.0165 25.4435 14.4835 -7.1250 0.0000 -0.0000 1.5453 59.0094 0.5291 0.0000 0.0000 0.0000 5.9015 54.0436 40.9650 -81.8386 59.7468 -52.9380 0.0000 0.0000 44.6330 -60.9385 13.2398 -22.3981 7.1250 -0.0000 -0.0000 -21.1586 -5.5102 -20.5147
2.9238 19.2247 5.5976 -8.0027 9.6594 0.3085 0.0000 0.0000 0.0000 -12.1700 -16.1902 2.6459 0.5218 4.6294 12.8544 0.0511 9.3966 -14.2424 0.2110 -2.9573 -8.1598 0.0000 0.0000 0.0000 13.5664 20.4507 -0.3686 -0.7020 -5.3553 14.9249 5.4661 -37.4316 -12.5827 -0.5173 -4.6099 12.7991 -3.7662 3.5091 4.2681 -6.8906 4.3898 0.5761 -5.2761 2.2098 -1.5343 -11.1558 -6.1014 -9.9932 10.2491 -7.3860 3.1224 4.4713 -3.4217 3.3557 -0.0000 0.0000 0.0000 -72.3303 -0.6284 2.4151 14.7329 -23.7726 -3.1175 -0.0000 0.0000 -1.8078 30.7949 25.5914 14.4368 -7.1250 0.0000 -0.0000 1.2434 59.1171 0.4289 -0.0000 0.0000 0.0000 4.5859 53.4678 38.8348 -81.4670 59.7231 -52.6171 0.0000 0.0000 43.6635 -60.9042 12.5579 -21.3409 7.1250 -0.0000 -0.0000 -21.3466 -6.6744 -20.2152
2.9394 19.2248 5.6028 -8.1791 9.5776 0.1806 0.0000 0.0000 0.0000 -12.0693 -16.1175 2.7818 0.5221 4.6307 12.8582 0.0473 9.4705 -14.2795 0.2207 -3.0239 -8.3454 0.0000 0.0000 0.0000 13.7516 20.4054 -0.2998 -0.7045 -5.3646 14.9514 5.4605 -37.4264 -12.4360 -0.5044 -4.5528 12.6374 -3.8124 3.3879 4.2054 -6.8304 4.2309 0.5712 -5.1740 2.1300 -1.5223 -11.1281 -5.9235 -10.3335 9.8707 -7.1104 3.5234 4.3604 -3.2904 3.4846 -0.0000 -0.0000 0.0000 -72.3844 -0.5339 1.4830 14.4573 -23.3846 -3.0072 -0.0000 0.0000 -0.9929 30.6596 25.4473 14.2903 -7.1250 0.0000 -0.0000 1.1273 58.9265 0.3837 -0.0000 -0.0000 0.0000 3.1555 52.9139 36.4968 -80.4402 59.6518 -51.7306 0.0000 0.0000 43.5031 -61.3646 12.3487 -21.3888 7.1250 -0.0000 -0.0000 -21.6602 -6.7626 -20.5229
2.9589 19.2224 5.6085 -8.2065 9.4884 0.0508 0.0000 0.0000 0.0000 -12.1818 -16.1422 2.9856 0.5258 4.6468 12.9040 0.0438 9.6056 -14.4055 0.2165 -2.9953 -8.2656 0.0000 0.0000 0.0000 13.7477 20.2238 -0.2474 -0.7052 -5.3675 14.9596 5.4458 -37.3688 -12.6417 -0.5526 -4.7620 13.2310 -4.0106 3.2096 4.1490 -6.7346 3.9933 0.6232 -4.9434 2.0114 -1.4719 -11.3857 -5.7199 -10.9489 9.6514 -6.7528 4.1423 4.3455 -3.1114 3.7329 0.0000 -0.0000 0.0000 -72.6033 -0.5691 0.5636 14.1587 -22.9611 -2.8897 -0.0000 0.0000 -0.5677 30.9376 25.5232 14.4807 -7.1250 0.0000 -0.0000 1.4302 59.0776 0.4920 0.0000 -0.0000 0.0000 1.3878 52.5541 33.9660 -79.3120 59.5639 -50.7575 0.0000 0.0000 43.5313 -61.7356 12.0934 -21.2895 7.1250 -0.0000 -0.0000 -21.9393 -6.9827 -20.7328
